HIERARCHY
ROOT Hips
{
	OFFSET 0.00000 0.00000 0.00000
	CHANNELS 6 Xposition Yposition Zposition Zrotation Yrotation Xrotation 
	JOINT LHipJoint
	{
		OFFSET 0 0 0
		CHANNELS 3 Zrotation Yrotation Xrotation
		JOINT LeftUpLeg
		{
			OFFSET 1.88772 -1.62769 0.85636
			CHANNELS 3 Zrotation Yrotation Xrotation
			JOINT LeftLeg
			{
				OFFSET 2.39836 -6.58946 0.00000
				CHANNELS 3 Zrotation Yrotation Xrotation
				JOINT LeftFoot
				{
					OFFSET 2.78523 -7.65237 0.00000
					CHANNELS 3 Zrotation Yrotation Xrotation
					JOINT LeftToeBase
					{
						OFFSET 0.19551 -0.53715 1.90694
						CHANNELS 3 Zrotation Yrotation Xrotation
						End Site
						{
							OFFSET 0.00000 -0.00000 0.99735
						}
					}
				}
			}
		}
	}
	JOINT RHipJoint
	{
		OFFSET 0 0 0
		CHANNELS 3 Zrotation Yrotation Xrotation
		JOINT RightUpLeg
		{
			OFFSET -1.74282 -1.62769 0.85636
			CHANNELS 3 Zrotation Yrotation Xrotation
			JOINT RightLeg
			{
				OFFSET -2.36062 -6.48575 0.00000
				CHANNELS 3 Zrotation Yrotation Xrotation
				JOINT RightFoot
				{
					OFFSET -2.76258 -7.59014 0.00000
					CHANNELS 3 Zrotation Yrotation Xrotation
					JOINT RightToeBase
					{
						OFFSET -0.19308 -0.53048 2.03952
						CHANNELS 3 Zrotation Yrotation Xrotation
						End Site
						{
							OFFSET -0.00000 -0.00000 1.06031
						}
					}
				}
			}
		}
	}
	JOINT LowerBack
	{
		OFFSET 0 0 0
		CHANNELS 3 Zrotation Yrotation Xrotation
		JOINT Spine
		{
			OFFSET -0.08299 2.03160 -0.30721
			CHANNELS 3 Zrotation Yrotation Xrotation
			JOINT Spine1
			{
				OFFSET -0.01030 2.00603 0.13891
				CHANNELS 3 Zrotation Yrotation Xrotation
				JOINT Neck
				{
					OFFSET 0 0 0
					CHANNELS 3 Zrotation Yrotation Xrotation
					JOINT Neck1
					{
						OFFSET 0.04282 1.69578 0.19991
						CHANNELS 3 Zrotation Yrotation Xrotation
						JOINT Head
						{
							OFFSET -0.08665 1.66622 -0.03785
							CHANNELS 3 Zrotation Yrotation Xrotation
							End Site
							{
								OFFSET -0.03699 1.83329 -0.04094
							}
						}
					}
				}
				JOINT LeftShoulder
				{
					OFFSET 0 0 0
					CHANNELS 3 Zrotation Yrotation Xrotation
					JOINT LeftArm
					{
						OFFSET 3.04219 1.50803 -0.05347
						CHANNELS 3 Zrotation Yrotation Xrotation
						JOINT LeftForeArm
						{
							OFFSET 5.79199 -0.00000 0.00000
							CHANNELS 3 Zrotation Yrotation Xrotation
							JOINT LeftHand
							{
								OFFSET 3.49908 -0.00000 0.00000
								CHANNELS 3 Zrotation Yrotation Xrotation
								JOINT LeftFingerBase
								{
									OFFSET 0 0 0
									CHANNELS 3 Zrotation Yrotation Xrotation
									JOINT LeftHandIndex1
									{
										OFFSET 0.59386 -0.00000 0.00000
										CHANNELS 3 Zrotation Yrotation Xrotation
										End Site
										{
											OFFSET 0.47879 -0.00000 0.00000
										}
									}
								}
								JOINT LThumb
								{
									OFFSET 0 0 0
									CHANNELS 3 Zrotation Yrotation Xrotation
									End Site
									{
										OFFSET 0.48610 -0.00000 0.48610
									}
								}
							}
						}
					}
				}
				JOINT RightShoulder
				{
					OFFSET 0 0 0
					CHANNELS 3 Zrotation Yrotation Xrotation
					JOINT RightArm
					{
						OFFSET -3.30316 1.18853 0.11175
						CHANNELS 3 Zrotation Yrotation Xrotation
						JOINT RightForeArm
						{
							OFFSET -5.73799 -0.00000 0.00000
							CHANNELS 3 Zrotation Yrotation Xrotation
							JOINT RightHand
							{
								OFFSET -3.57916 -0.00000 -0.00000
								CHANNELS 3 Zrotation Yrotation Xrotation
								JOINT RightFingerBase
								{
									OFFSET 0 0 0
									CHANNELS 3 Zrotation Yrotation Xrotation
									JOINT RightHandIndex1
									{
										OFFSET -0.61558 -0.00000 0.00000
										CHANNELS 3 Zrotation Yrotation Xrotation
										End Site
										{
											OFFSET -0.49629 -0.00000 0.00000
										}
									}
								}
								JOINT RThumb
								{
									OFFSET 0 0 0
									CHANNELS 3 Zrotation Yrotation Xrotation
									End Site
									{
										OFFSET -0.50387 -0.00000 0.50387
									}
								}
							}
						}
					}
				}
			}
		}
	}
}
MOTION
Frames: 14
Frame Time: 0.0952381
0.00 0.00 0.00 0 0 0 0 0 0 -21 0 0 0 0 0 0 0 0 0 0 0 0 0 0 21 0 0 0 0 0 0 0 0 0 0 0 0 0 0 0 0 0 0 0 0 0 0 -16 0 0 21 0 0 11 0 0 0 -8 0 0 0 0 0 0 0 0 0 0 0 0 0 0 0 0 0 0 0 0 8 0 0 0 0 0 0 0 0 0 0 0 0 0 0 0 0 0
0.00 0.00 0.00 2.2465 -6.4836 7.6308 0.0000 0.0000 0.0000 -19.7173 -13.3664 -34.2441 3.7590 11.8326 35.1424 0.2350 3.4348 -11.0848 0.0855 -1.8855 -5.1894 0.0000 0.0000 0.0000 18.6157 -5.0555 2.1793 -3.3139 -11.1867 32.9120 0.5036 -12.6593 -7.1023 -0.7944 5.6890 -15.8848 -6.2234 1.1532 4.5599 -2.2745 1.0194 -2.2479 1.0330 0.6663 -4.9742 7.0376 7.1317 -6.2119 -9.3668 9.9188 9.6259 -3.3878 4.6498 4.7222 0.0000 0.0000 0.0000 -78.6050 13.3835 35.5885 18.4008 -28.6673 -4.7399 -0.0000 0.0000 -14.5757 7.3725 -19.0728 -2.4210 -7.1250 0.0000 -0.0000 -13.5034 11.1598 10.9510 0.0000 0.0000 0.0000 80.6452 -16.1737 41.3000 -26.1226 37.3295 -8.9619 0.0000 -0.0000 -11.9772 -24.8372 -27.7528 12.1630 7.1250 -0.0000 -0.0000 6.4791 -59.9692 -2.3727
0.00 0.00 0.00 3.0291 -6.2634 7.2478 0.0000 0.0000 0.0000 -22.1484 -11.5458 -30.3269 3.4454 11.3833 33.5838 0.4060 1.5790 -12.7150 0.0312 -1.1400 -3.1341 0.0000 0.0000 0.0000 17.0436 -2.2186 -6.7153 -7.2680 -15.5534 49.8806 0.4840 -12.2698 -3.3210 -0.2167 2.9968 -8.2699 -7.2214 1.2259 4.9085 -2.3842 1.0096 -2.2555 1.4665 0.6978 -5.2039 7.4533 6.8594 -6.5424 -9.8733 9.5921 10.1604 -3.6221 4.4595 4.9588 -0.0000 0.0000 0.0000 -77.5077 12.8463 34.9742 18.6137 -28.9359 -4.8425 -0.0000 0.0000 -15.6215 4.2855 -17.9673 -1.3242 -7.1250 0.0000 -0.0000 -15.5161 12.4367 12.2800 -0.0000 0.0000 0.0000 80.4692 -16.2501 41.6610 -24.4461 35.6324 -7.9650 0.0000 -0.0000 -10.0037 -22.8285 -27.9061 11.1453 7.1250 -0.0000 -0.0000 8.8191 -59.6458 -3.1685
0.00 0.00 0.00 3.9854 -4.7292 7.0871 0.0000 0.0000 0.0000 -25.1596 -10.7055 -24.1094 2.8588 10.4629 30.4891 0.5949 0.1856 -14.6431 0.0006 -0.1531 -0.4208 0.0000 0.0000 0.0000 15.4790 2.1960 -19.4724 -12.6281 -18.6437 67.9664 0.1529 -6.9265 -2.9300 -0.1639 2.6082 -7.1897 -8.0068 0.7976 4.6416 -2.1650 0.4382 -2.0164 2.1928 0.4263 -4.7672 7.1880 6.8310 -7.2366 -9.7009 9.5987 11.0689 -3.4967 4.4259 5.3353 -0.0000 0.0000 0.0000 -76.6222 11.3321 32.5336 19.5667 -30.1168 -5.3122 -0.0000 0.0000 -16.6668 8.7058 -18.3135 -2.7546 -7.1250 0.0000 -0.0000 -12.6568 11.8023 10.0550 -0.0000 0.0000 0.0000 80.3130 -16.4328 42.1865 -23.7300 34.8775 -7.5516 0.0000 -0.0000 -8.1791 -19.4883 -25.6932 8.7228 7.1250 -0.0000 -0.0000 11.2960 -56.6596 -3.2573
0.00 0.00 0.00 6.5037 -0.6379 7.6509 0.0000 0.0000 0.0000 -30.9458 -4.0415 -4.4642 1.2121 6.9842 19.6684 1.3827 -2.4561 -21.5638 0.0803 -1.8280 -5.0305 0.0000 0.0000 0.0000 9.8883 15.9611 -38.7482 -4.1175 -12.3152 36.8563 -0.3296 -6.6297 -15.2681 -0.1036 2.0755 -5.7143 -9.3370 -0.1778 3.8205 -1.2073 -0.8010 -1.8928 4.0326 -0.1649 -4.0268 6.9223 5.8100 -7.5110 -7.1760 7.9016 11.2581 -2.8014 3.7321 5.1768 -0.0000 0.0000 0.0000 -73.8067 8.2919 36.1824 30.1792 -41.0465 -11.5271 -0.0000 0.0000 -23.6217 14.5779 -20.7444 -5.2630 -7.1250 0.0000 -0.0000 -8.9105 8.8143 7.5341 -0.0000 0.0000 0.0000 80.6726 -17.8455 40.0581 -22.7817 33.8492 -7.0163 0.0000 -0.0000 -7.7493 -18.4232 -28.4799 9.0255 7.1250 -0.0000 -0.0000 13.9790 -59.1931 -4.9069
0.00 0.00 0.00 5.7831 1.0307 5.9365 0.0000 0.0000 0.0000 -26.4530 2.0087 8.1337 1.4009 7.4873 21.1674 0.2665 -4.1438 -9.2052 2.0439 -8.9570 -25.6610 0.0000 0.0000 0.0000 11.9860 16.9537 -35.4508 -3.0159 -10.7208 31.3439 0.1291 -9.0293 -10.1260 -0.0011 -0.2180 0.5990 -7.2602 -0.6524 3.2413 -0.2857 -1.2403 -2.0364 3.8545 -0.4306 -3.7942 6.3448 5.2333 -6.9210 -6.7811 7.2216 12.1571 -2.6504 3.4061 5.2682 -0.0000 -0.0000 0.0000 -76.5302 11.0347 38.1574 27.0709 -38.2468 -9.5430 -0.0000 0.0000 -21.0027 11.6802 -19.8687 -4.0190 -7.1250 0.0000 -0.0000 -10.7407 10.0026 8.8734 -0.0000 -0.0000 0.0000 81.6375 -20.1243 36.7396 -20.8789 31.6868 -5.9862 0.0000 -0.0000 -7.0283 -17.5689 -29.9266 8.9762 7.1250 -0.0000 -0.0000 15.8606 -60.4016 -6.0466
0.00 0.00 0.00 4.4693 -0.3058 4.3087 0.0000 0.0000 0.0000 -23.4532 2.7330 0.9003 4.5830 12.8982 38.9885 0.0170 1.2648 2.3450 0.4057 -4.0890 -11.3273 0.0000 0.0000 0.0000 16.0869 15.4191 -31.9988 -3.6489 -11.6779 34.6020 -0.0737 -5.5746 -9.8469 -0.6557 -5.1794 14.4211 -5.7888 -0.0011 3.7004 0.0498 -0.3145 -1.9501 3.3228 0.0021 -4.0720 6.7515 4.8596 -6.3974 -7.1786 6.7641 12.4084 -2.8879 3.1867 5.2519 -0.0000 -0.0000 0.0000 -77.9806 12.3173 37.1481 23.5134 -34.6455 -7.4281 -0.0000 0.0000 -20.0766 9.8568 -19.4282 -3.3077 -7.1250 0.0000 -0.0000 -11.9074 10.6088 9.7297 -0.0000 -0.0000 0.0000 81.4498 -19.9096 36.9327 -19.5523 30.0992 -5.3050 0.0000 -0.0000 -4.6943 -16.0923 -29.4530 8.0737 7.1250 -0.0000 -0.0000 17.1193 -59.5997 -6.2136
0.00 0.00 0.00 3.2228 0.0583 4.3377 0.0000 0.0000 0.0000 -21.4991 -2.2945 -9.4529 9.2759 16.9820 57.0394 0.0360 3.4197 3.8618 0.4818 -4.4513 -12.3500 0.0000 0.0000 0.0000 19.8374 13.1695 -27.4606 -3.5352 -11.5148 34.0363 -0.3045 -3.7775 -12.5116 -0.2340 -3.1131 8.5939 -4.6244 -0.0208 3.6158 0.3432 -0.2618 -1.9544 2.9689 -0.0001 -4.0315 5.9145 4.8411 -6.6908 -5.7031 6.6339 12.7540 -2.2924 3.1679 5.3233 -0.0000 -0.0000 0.0000 -79.0686 13.9237 36.0943 23.0536 -34.1474 -7.1684 -0.0000 0.0000 -18.4333 8.4234 -18.3314 -2.6666 -7.1250 0.0000 -0.0000 -12.8393 11.8065 10.2066 -0.0000 -0.0000 0.0000 80.7245 -17.8691 37.1670 -19.3432 29.8429 -5.2005 0.0000 -0.0000 -2.8555 -13.8239 -29.4112 6.8900 7.1250 -0.0000 -0.0000 19.4855 -59.0424 -6.8489
0.00 0.00 0.00 1.4720 -4.3339 5.3833 0.0000 0.0000 0.0000 -18.2772 -12.7204 -31.9849 10.4787 17.6704 61.0768 0.3034 0.5910 -10.6353 0.5696 -4.8337 -13.4348 0.0000 0.0000 0.0000 25.9552 13.7329 -14.4491 -2.7898 -10.3468 30.1073 -1.0587 -1.5238 -20.0450 -0.3193 -3.6320 10.0437 -3.2469 1.1721 2.8975 -0.2290 1.4031 -2.3506 1.4921 0.7880 -4.1244 5.9753 5.0000 -6.1978 -6.7022 6.9455 11.6397 -2.6080 3.2789 4.9509 0.0000 0.0000 0.0000 -79.3218 16.5217 35.9068 23.2249 -34.3338 -7.2647 -0.0000 0.0000 -19.0054 7.0453 -17.5206 -2.1308 -7.1250 0.0000 -0.0000 -13.7505 12.6989 10.7116 0.0000 0.0000 0.0000 78.3139 -13.8480 38.3597 -29.1661 40.1678 -10.8677 0.0000 -0.0000 -9.4845 -21.0073 -29.7696 10.7948 7.1250 -0.0000 -0.0000 11.9563 -61.0816 -4.7223
0.00 0.00 0.00 -0.5611 -9.6490 7.7484 0.0000 0.0000 0.0000 -11.4723 -20.4661 -38.1047 2.1445 9.1607 26.2994 0.7253 9.1063 -21.8643 1.0951 -6.6501 -18.6827 0.0000 0.0000 0.0000 29.7879 6.8058 8.5151 -0.0625 -1.6133 4.4382 -0.6063 -1.4473 -15.3032 -0.1491 -2.4883 6.8573 -2.1203 1.7410 0.7576 -0.9057 2.2410 -2.9733 0.1685 1.1624 -3.5272 7.0003 6.6913 -5.6292 -10.1312 9.4459 9.5819 -3.6763 4.3971 4.6055 0.0000 0.0000 0.0000 -79.4095 16.6287 32.6347 21.6760 -32.6089 -6.4104 -0.0000 0.0000 -18.7614 7.3359 -18.0475 -2.2840 -7.1250 0.0000 -0.0000 -13.5483 12.1645 10.6999 0.0000 0.0000 0.0000 76.7150 -11.3725 41.7474 -42.2167 49.3297 -20.1047 0.0000 -0.0000 -10.3457 -21.0588 -30.9969 11.2159 7.1250 -0.0000 -0.0000 12.7334 -62.3094 -5.4049
0.00 0.00 0.00 -2.8298 0.9082 1.5776 0.0000 0.0000 0.0000 -24.4655 -1.5598 -33.5841 3.8951 12.0195 35.8009 0.1732 7.9534 -14.3757 0.4730 4.4107 12.2350 0.0000 0.0000 0.0000 21.3963 -4.0134 -2.5534 -6.8899 -15.2385 48.4566 -0.1850 1.0810 8.5941 -0.8729 5.9566 -16.6586 -3.6498 1.4470 1.2898 -0.6072 1.7874 -3.2872 1.3268 0.9983 -4.2087 -2.2110 11.2582 -16.4180 -1.6768 16.4381 17.6822 1.6950 7.4611 8.1344 0.0000 0.0000 0.0000 -79.0713 16.6914 31.8904 17.5903 -27.6294 -4.3576 -0.0000 0.0000 -16.0205 9.4487 -19.0453 -3.1084 -7.1250 0.0000 -0.0000 -12.1706 11.0217 9.8499 0.0000 0.0000 0.0000 83.5052 -20.6372 36.5653 -32.6421 43.0531 -13.1771 0.0000 -0.0000 -2.9001 -14.7351 -28.7443 7.2084 7.1250 -0.0000 -0.0000 18.0670 -58.6159 -6.1427
0.00 0.00 0.00 -2.2636 120.0880 10.2905 0.0000 0.0000 0.0000 -10.9130 -8.7640 -24.9129 3.4836 11.4396 33.7771 0.3488 -2.7555 -10.5457 0.9840 -6.3141 -17.6986 0.0000 0.0000 0.0000 16.2637 8.1044 -12.0942 -1.8945 -8.6429 24.6844 -1.1621 -11.5087 -27.4918 -0.0643 -1.6363 4.5015 -2.5489 0.2343 1.0868 -0.8878 0.2561 -2.7758 0.5029 0.2025 -3.4708 11.4732 13.5136 1.0620 -16.1792 20.3081 9.0001 -5.5072 10.0351 5.3693 0.0000 0.0000 0.0000 -78.8055 10.1604 38.0447 44.0619 -50.3005 -21.5145 -0.0000 0.0000 -25.3204 18.9234 -22.2411 -7.3936 -7.1250 0.0000 -0.0000 -6.2418 6.7170 5.5024 0.0000 0.0000 0.0000 75.9737 -20.1287 34.6508 -21.4966 32.4034 -6.3139 0.0000 -0.0000 -10.7196 -22.3776 -32.3660 12.4293 7.1250 -0.0000 -0.0000 12.2217 -64.0075 -5.6709
0.00 0.00 0.00 -2.8423 143.4000 11.2633 0.0000 0.0000 0.0000 -17.0300 -3.0702 -36.2410 4.6210 12.9439 39.1588 0.3546 -1.8309 -10.7612 0.3892 -4.0061 -11.0938 0.0000 0.0000 0.0000 20.5995 0.0605 -12.4123 -1.9738 -8.8113 25.2069 -3.0716 -15.4095 -41.1531 -1.1437 -6.7911 19.0980 -1.7737 0.6727 0.8121 -0.8592 0.8744 -2.1646 0.0836 0.4793 -2.6890 11.3285 11.8701 -0.3238 -17.7195 17.8215 6.7248 -6.1908 8.8082 4.6901 -0.0000 0.0000 0.0000 -78.3243 13.5456 35.9141 33.6451 -43.8200 -13.8667 -0.0000 0.0000 -22.5838 16.5745 -20.9793 -6.0825 -7.1250 0.0000 -0.0000 -7.6485 8.3327 6.5192 -0.0000 0.0000 0.0000 72.5206 -14.8125 25.0610 -21.3712 32.2591 -6.2469 0.0000 -0.0000 -10.2865 -25.6306 -32.7993 14.5685 7.1250 -0.0000 -0.0000 8.6038 -65.3427 -4.2442
0.00 0.00 0.00 0.0337 152.7710 14.4504 0.0000 0.0000 0.0000 -15.8093 -9.1108 -35.8664 2.5532 9.9340 28.7634 0.9223 10.0279 -24.3802 0.0744 -1.7592 -4.8405 0.0000 0.0000 0.0000 23.6089 -3.7825 -7.6789 -1.0787 -6.6015 18.5401 -2.9124 -20.3862 -44.1892 -0.2487 -3.2091 8.8615 -1.4083 1.9367 0.5673 -0.6036 2.5933 -2.7533 0.0795 1.3449 -3.1795 8.4634 10.8197 -1.0444 -14.9315 15.8553 5.7389 -5.0985 7.8330 3.7570 0.0000 -0.0000 0.0000 -79.7680 14.5774 33.2443 22.7015 -33.7608 -6.9717 -0.0000 0.0000 -18.6031 14.1277 -20.4696 -5.0303 -7.1250 0.0000 -0.0000 -9.1881 9.1431 7.7139 0.0000 -0.0000 0.0000 76.3022 -10.5576 31.4115 -25.0795 36.2851 -8.3369 0.0000 -0.0000 -12.8735 -26.3647 -32.6235 14.9603 7.1250 -0.0000 -0.0000 7.5550 -65.3736 -3.7294
